<?xml version="1.0" standalone="no"?>
<!DOCTYPE svg PUBLIC "-//W3C//DTD SVG 20010904//EN"
 "http://www.w3.org/TR/2001/REC-SVG-20010904/DTD/svg10.dtd">
<svg version="1.0" xmlns="http://www.w3.org/2000/svg"
 width="159.000000pt" height="159.000000pt" viewBox="0 0 159.000000 159.000000"
 preserveAspectRatio="xMidYMid meet">
<metadata>
Created by potrace 1.16, written by Peter Selinger 2001-2019
</metadata>
<g transform="translate(0.000000,159.000000) scale(0.100000,-0.100000)"
fill="#000000" stroke="none">
<path d="M735 1576 c-5 -3 -36 -7 -67 -11 -56 -6 -58 -7 -58 -37 0 -30 0 -30
43 -24 68 10 228 8 277 -3 197 -45 372 -170 472 -336 67 -111 118 -313 103
-406 -6 -33 -4 -37 21 -43 14 -4 29 -4 33 -1 3 4 5 48 4 98 -10 407 -327 735
-738 762 -44 2 -84 3 -90 1z"/>
<path d="M680 1491 c-50 -10 -58 -17 -53 -46 5 -23 8 -24 47 -17 22 4 84 6
136 5 116 -2 225 -34 314 -94 l61 -41 18 23 c19 23 18 24 -9 46 -92 73 -239
123 -378 128 -55 2 -117 1 -136 -4z"/>
<path d="M344 1439 c-86 -60 -178 -160 -230 -248 -49 -83 -94 -213 -97 -276
-2 -36 0 -40 24 -43 25 -3 27 0 34 45 25 173 130 342 280 453 79 58 83 63 73
86 -6 13 -14 24 -18 24 -4 0 -33 -19 -66 -41z"/>
<path d="M695 1414 c-232 -36 -425 -200 -506 -430 -12 -34 -23 -97 -26 -149
-24 -412 349 -735 751 -650 199 42 366 182 446 373 141 335 -44 724 -395 834
-59 19 -211 31 -270 22z m191 -665 c11 -23 19 -28 27 -20 17 17 35 13 42 -9 8
-24 -12 -53 -31 -46 -6 2 -14 -3 -17 -13 -14 -54 -139 -100 -193 -71 -13 7
-27 10 -30 7 -4 -4 -13 1 -20 11 -13 16 -13 16 -14 -1 0 -10 -5 -17 -12 -15
-19 7 -32 34 -24 53 5 15 9 15 22 4 15 -12 16 -8 13 41 l-4 55 73 1 c40 1 78
6 85 12 10 8 34 17 59 21 4 0 15 -13 24 -30z m175 -309 c74 -40 -167 -143
-338 -144 -87 -1 -103 5 -87 32 11 17 71 62 83 62 3 0 11 -10 16 -22 12 -27
40 -33 79 -18 26 9 28 14 22 48 l-5 37 15 -34 c14 -32 17 -33 56 -28 55 7 65
20 44 51 l-16 26 55 0 c31 0 65 -5 76 -10z"/>
<path d="M183 1157 c-87 -145 -123 -333 -92 -477 8 -39 15 -50 26 -46 8 3 21
6 30 6 10 0 13 6 9 17 -4 9 -9 55 -12 102 -8 116 13 211 72 329 38 76 44 95
34 107 -21 25 -34 17 -67 -38z"/>
<path d="M1432 953 c-19 -4 -23 -9 -18 -26 16 -60 18 -166 2 -246 -32 -172
-137 -333 -273 -419 -43 -27 -51 -44 -33 -72 12 -19 39 -4 123 65 184 152 285
410 247 633 -6 40 -15 71 -18 71 -4 -1 -18 -4 -30 -6z"/>
<path d="M40 630 c-20 -12 -2 -80 50 -185 75 -154 195 -272 355 -350 117 -57
204 -78 335 -79 130 -1 223 21 345 79 134 65 297 209 281 250 -13 34 -35 25
-97 -41 -82 -86 -189 -156 -287 -187 -107 -35 -128 -39 -241 -39 -159 0 -264
33 -409 129 -125 83 -226 221 -277 381 -17 52 -27 60 -55 42z"/>
<path d="M195 464 c-19 -14 -19 -15 0 -52 31 -58 163 -184 235 -224 133 -75
280 -107 423 -94 92 9 101 14 87 50 -7 20 -15 26 -27 22 -9 -4 -48 -9 -88 -13
-167 -14 -367 62 -492 188 -39 38 -79 85 -89 104 -21 40 -22 40 -49 19z"/>
</g>
</svg>
